<svg id="Capa_1" enable-background="new 0 0 512 512" height="512" viewBox="0 0 512 512" width="512" xmlns="http://www.w3.org/2000/svg"><g><path d="m365.78 109.78c0 78.6-109.78 161.95-109.78 161.95s-109.78-83.35-109.78-161.95c0-60.63 49.15-109.78 109.78-109.78s109.78 49.15 109.78 109.78z" fill="#fd676a"/><path d="m365.78 109.78c0 78.6-109.78 161.95-109.78 161.95v-271.73c60.63 0 109.78 49.15 109.78 109.78z" fill="#fc363b"/><path d="m305.14 109.48c0 27.14-22 49.15-49.14 49.15s-49.14-22.01-49.14-49.15 22-49.14 49.14-49.14 49.14 22 49.14 49.14z" fill="#f0f7ff"/><path d="m305.14 109.48c0 27.14-22 49.15-49.14 49.15v-98.29c27.14 0 49.14 22 49.14 49.14z" fill="#d7e9fc"/><path d="m219.36 342.02v101.12h-167.72v-101.12l83.86-48.88z" fill="#ffe987"/><path d="m219.36 342.02v101.12h-83.86v-150z" fill="#fecb6e"/><path d="m241.43 336.49-15.44 25.73-90.49-54.3-90.49 54.3-15.44-25.73 105.93-63.55z" fill="#fd676a"/><path d="m241.43 336.49-15.44 25.73-90.49-54.3v-34.98z" fill="#fc363b"/><path d="m120.5 376.5h30v51.64h-30z" fill="#fd676a"/><path d="m135.5 376.5h15v51.64h-15z" fill="#fc363b"/><path d="m460.36 342.02v101.12h-167.72v-101.12l83.86-48.88z" fill="#ffe987"/><path d="m460.36 342.02v101.12h-83.86v-150z" fill="#fecb6e"/><path d="m482.43 336.49-15.44 25.73-90.49-54.3-90.49 54.3-15.44-25.73 105.93-63.55z" fill="#fd676a"/><path d="m482.43 336.49-15.44 25.73-90.49-54.3v-34.98z" fill="#fc363b"/><path d="m361.5 376.5h30v51.64h-30z" fill="#fd676a"/><path d="m376.5 376.5h15v51.64h-15z" fill="#fc363b"/><path d="m512 443.14v38.86l-15 15h-241v-64.3h241z" fill="#39648e"/><path d="m497 432.7h-482l-15 10.44v38.86l15 15h482l15-15v-38.86z" fill="#9dd867"/><path d="m512 443.14v38.86l-15 15h-241v-64.3h241z" fill="#77c080"/><path d="m0 413.14h512v30h-512z" fill="#bfe471"/><path d="m0 482h512v30h-512z" fill="#bfe471"/><g fill="#9dd867"><path d="m256 413.14h256v30h-256z"/><path d="m256 482h256v30h-256z"/></g></g></svg>