<svg id="Capa_1" enable-background="new 0 0 512 512" height="512" viewBox="0 0 512 512" width="512" xmlns="http://www.w3.org/2000/svg"><g><path d="m512 136.213v179.611l-15 41.79h-482l-15-41.79v-179.611h447.57l15.04-8.879 14.96 8.879z" fill="#f0f7ff"/><path d="m512 136.213v179.611l-15 41.79h-241v-221.401h191.57l15.04-8.879 14.96 8.879z" fill="#d7e9fc"/><path d="m187.14 195.943h137.72v30h-137.72z" fill="#324d75"/><path d="m187.14 264.793h137.72v30h-137.72z" fill="#324d75"/><path d="m256 195.943h68.86v30h-68.86z" fill="#213e68"/><path d="m256 264.793h68.86v30h-68.86z" fill="#213e68"/><path d="m202.143 357.615h-30v-249.96c0-46.239 37.618-83.857 83.857-83.857s83.857 37.618 83.857 83.857h-30c0-29.697-24.16-53.857-53.857-53.857s-53.857 24.16-53.857 53.857z" fill="#39648e"/><path d="m339.857 357.615h-30v-249.96c0-46.239 37.618-83.857 83.857-83.857s83.857 37.618 83.857 83.857v28.558h-30v-28.558c0-29.697-24.16-53.857-53.857-53.857-29.696 0-53.857 24.16-53.857 53.857z" fill="#324d75"/><path d="m512 390.293-16.01 15.32 16.01 14.68v67.91h-512v-67.91l16.01-14.93-16.01-15.07v-44.47l17.1-11.34c16.44 7.95 21.91 26.08 46.9 26.08 32 0 32-29.74 64-29.74s32 29.74 64 29.74c31.99 0 31.99-29.74 63.99-29.74h.01c31.99.01 31.99 29.74 63.99 29.74s32-29.74 64-29.74 32 29.74 64.01 29.74c24.96 0 30.45-18.1 46.85-26.06l17.15 11.32z" fill="#00b3ff"/><path d="m512 390.293-16.01 15.32 16.01 14.68v67.91h-256v-157.38c31.99.01 31.99 29.74 63.99 29.74s32-29.74 64-29.74 32 29.74 64.01 29.74c24.96 0 30.45-18.1 46.85-26.06l17.15 11.32z" fill="#3a80e8"/><path d="m512 390.29v30c-26.06 2.61-29.04 30.83-64 29.74-21.9 0-33.64-10.92-42.22-18.89-13.05-14.74-31.01-14.01-43.58 0-8.57 7.97-20.32 18.89-42.21 18.89s-33.64-10.92-42.21-18.89c-6.48-7.31-14.16-10.82-21.78-10.79-7.76.03-15.46 3.72-21.79 10.79-8.58 7.97-20.32 18.89-42.21 18.89-21.9 0-33.64-10.92-42.22-18.89-13.05-14.74-31.01-14.01-43.57 0-8.58 7.97-20.32 18.89-42.21 18.89-40.1-1-39.54-29.17-64-29.74v-30c21.89 0 33.64 10.91 42.21 18.88 13.06 14.75 31 14.03 43.57 0 8.58-7.97 20.32-18.88 42.22-18.88 21.89 0 33.63 10.91 42.21 18.88 13.05 14.75 31 14.03 43.57 0 8.58-7.97 20.32-18.88 42.21-18.88h.01c21.89 0 33.63 10.91 42.2 18.88 13.07 14.75 31 14.03 43.58 0 8.57-7.97 20.32-18.88 42.21-18.88 21.9 0 33.64 10.91 42.22 18.88 13.06 14.75 31 14.03 43.58 0 8.57-7.97 20.31-18.88 42.21-18.88z" fill="#00f6fe"/><path d="m512 315.81v30c-26.06 2.6-29.04 30.83-64 29.74-21.9 0-33.64-10.92-42.22-18.89-13.05-14.74-31.01-14.02-43.58 0-8.57 7.97-20.32 18.89-42.21 18.89s-33.64-10.92-42.21-18.89c-6.48-7.31-14.16-10.82-21.78-10.79-7.76.03-15.46 3.72-21.79 10.79-8.58 7.97-20.32 18.89-42.21 18.89-21.9 0-33.64-10.92-42.22-18.89-13.05-14.74-31.01-14.02-43.57 0-8.58 7.97-20.32 18.89-42.21 18.89-40.1-1.01-39.54-29.17-64-29.74v-30c21.89 0 33.64 10.91 42.21 18.88 13.06 14.74 31 14.03 43.57 0 8.58-7.97 20.32-18.88 42.22-18.88 21.89 0 33.63 10.91 42.21 18.88 13.05 14.74 31 14.03 43.57 0 8.58-7.97 20.32-18.88 42.21-18.88h.01c21.89 0 33.63 10.91 42.2 18.88 13.07 14.75 31 14.02 43.58 0 8.57-7.97 20.32-18.88 42.21-18.88 21.9 0 33.64 10.91 42.22 18.88 13.06 14.75 31 14.02 43.58 0 8.57-7.97 20.31-18.88 42.21-18.88z" fill="#00f6fe"/><g fill="#00b3ff"><path d="m512 315.81v30c-26.06 2.6-29.04 30.83-64 29.74-21.9 0-33.64-10.92-42.22-18.89-13.05-14.74-31.01-14.02-43.58 0-8.57 7.97-20.32 18.89-42.21 18.89s-33.64-10.92-42.21-18.89c-6.48-7.31-14.16-10.82-21.78-10.79v-30.06c21.89 0 33.63 10.91 42.2 18.88 13.07 14.75 31 14.02 43.58 0 8.57-7.97 20.32-18.88 42.21-18.88 21.9 0 33.64 10.91 42.22 18.88 13.06 14.75 31 14.02 43.58 0 8.57-7.97 20.31-18.88 42.21-18.88z"/><path d="m469.79 409.17c8.57-7.97 20.31-18.88 42.21-18.88v30c-26.06 2.61-29.04 30.83-64 29.74-21.9 0-33.64-10.92-42.22-18.89-13.05-14.74-31.01-14.01-43.58 0-8.57 7.97-20.32 18.89-42.21 18.89s-33.64-10.92-42.21-18.89c-6.48-7.31-14.16-10.82-21.78-10.79v-30.06c21.89 0 33.63 10.91 42.2 18.88 13.07 14.75 31 14.03 43.58 0 8.57-7.97 20.32-18.88 42.21-18.88 21.9 0 33.64 10.91 42.22 18.88 13.06 14.75 31 14.03 43.58 0z"/></g></g></svg>