<svg id="Capa_1" enable-background="new 0 0 512.037 512.037" height="512" viewBox="0 0 512.037 512.037" width="512" xmlns="http://www.w3.org/2000/svg"><g><path d="m512.018 112v352c0 7.12-5.01 13.26-11.99 14.69-170 34.85-161.74 33.18-162.61 33.24-.55.05-.78.13-1.4.1-2.57-.11-11.89-2.09-79.99-16.18-20.73-4.3-46.91-9.71-80.01-16.54-.1 0 2.4-.49-157.99 32.38-9.23 1.94-18.01-5.18-18.01-14.69v-353c0-7.16 5.06-13.32 12.08-14.71 173.6-34.5 160.51-31.94 162.29-32.19.65-.05.9-.14 1.63-.1 2.81.15 12.7 2.17 80.01 15.67 20.73 4.16 46.9 9.41 79.99 16.03.1 0-2.18.44 158.08-31.41 9.21-1.84 17.92 5.2 17.92 14.71z" fill="#5ab267"/><path d="m512.018 112v352c0 7.12-5.01 13.26-11.99 14.69-170 34.85-161.74 33.18-162.61 33.24-.55.05-.78.13-1.4.1-2.57-.11-11.89-2.09-79.99-16.18v-383.18c20.73 4.16 46.9 9.41 79.99 16.03.1 0-2.18.44 158.08-31.41 9.21-1.84 17.92 5.2 17.92 14.71z" fill="#288c64"/><path d="m336.018 128.7v383.33c-2.57-.11-11.89-2.09-79.99-16.18-20.73-4.3-46.91-9.71-80.01-16.54v-382.31c2.81.15 12.7 2.17 80.01 15.67 20.73 4.16 46.9 9.41 79.99 16.03z" fill="#8cd96b"/><path d="m336.018 128.7v383.33c-2.57-.11-11.89-2.09-79.99-16.18v-383.18c20.73 4.16 46.9 9.41 79.99 16.03z" fill="#5ab267"/><path d="m437.231 376 5.394-5.394c5.858-5.858 5.858-15.355 0-21.213-5.857-5.858-15.355-5.858-21.213 0l-5.394 5.394-5.394-5.394c-5.857-5.858-15.355-5.858-21.213 0s-5.858 15.355 0 21.213l5.394 5.394-5.394 5.394c-5.858 5.858-5.858 15.355 0 21.213 5.857 5.858 15.355 5.859 21.213 0l5.394-5.394 5.394 5.394c5.857 5.858 15.355 5.859 21.213 0 5.858-5.858 5.858-15.355 0-21.213z" fill="#ff468c"/><path d="m399.018 144c0 32.17-22.3 84.14-66.28 154.46-31.98 51.14-64.43 94.16-64.75 94.59-2.84 3.75-7.26 5.95-11.96 5.95h-.01c-4.7 0-9.13-2.2-11.97-5.95-.32-.43-32.77-43.45-64.75-94.59-43.98-70.32-66.28-122.29-66.28-154.46 0-79.4 64.15-144 143-144h.01c78.85.01 142.99 64.6 142.99 144z" fill="#ff73a5"/><path d="m399.018 144c0 32.17-22.3 84.14-66.28 154.46-31.98 51.14-64.43 94.16-64.75 94.59-2.84 3.75-7.26 5.95-11.96 5.95v-399c78.85.01 142.99 64.6 142.99 144z" fill="#ff468c"/><path d="m336.958 144c0 12.55-4.89 24.36-13.77 33.23-.47.49-24.48 24.49-56.57 56.57-2.92 2.93-6.75 4.4-10.59 4.4s-7.68-1.46-10.62-4.4l-56.56-56.57c-18.33-18.32-18.33-48.14 0-66.46 17.22-17.23 46.49-19.69 67.17.7l.01-.01c9.83-9.82 21.4-14.46 33.92-14.46 25.87 0 47.01 20.93 47.01 47z" fill="#edf5ff"/><path d="m336.958 144c0 12.55-4.89 24.36-13.77 33.23-.47.49-24.48 24.49-56.57 56.57-2.92 2.93-6.75 4.4-10.59 4.4v-126.74c9.83-9.82 21.4-14.46 33.92-14.46 25.87 0 47.01 20.93 47.01 47z" fill="#d5e8fe"/></g></svg>